<?xml version="1.0" standalone="no"?><!DOCTYPE svg PUBLIC "-//W3C//DTD SVG 1.1//EN" "http://www.w3.org/Graphics/SVG/1.1/DTD/svg11.dtd"><svg t="1700134603424" class="icon" viewBox="0 0 1024 1024" version="1.1" xmlns="http://www.w3.org/2000/svg" p-id="2827" xmlns:xlink="http://www.w3.org/1999/xlink" width="200" height="200"><path d="M495.2 45.76h30.88c53.6 2.496 107.008 12.864 156.832 33.056a466.56 466.56 0 0 1 242.048 220.928 466.144 466.144 0 0 1 50.56 202.464v16.64a466.24 466.24 0 0 1-49.312 200.032 467.008 467.008 0 0 1-128.224 156.992 463.616 463.616 0 0 1-187.488 88.64c-27.68 6.24-55.968 9.152-84.224 10.848h-30.912c-37.056-1.952-74.048-6.944-109.792-17.152a464.928 464.928 0 0 1-224.576-141.6 464.704 464.704 0 0 1-92.576-162.88 473.984 473.984 0 0 1-22.56-134.848v-16.608a465.92 465.92 0 0 1 72.384-240.736 466.752 466.752 0 0 1 202.528-175.2c54.752-24.896 114.432-37.888 174.4-40.576z m-88.704 99.136c-29.44 36.992-48.672 80.864-64.288 125.216 21.92 5.504 44.416 7.904 66.72 11.264 27.648 2.848 55.392 5.376 83.2 5.6-0.032-67.424 0.032-134.816-0.032-202.272-35.392 7.456-63.84 32.512-85.6 60.192z m122.816 142.048a791.68 791.68 0 0 0 112.384-9.824c12.64-1.632 25.152-3.968 37.536-7.04-18.272-51.904-41.792-103.552-80.384-143.648-18.88-19.776-42.4-36-69.472-41.728-0.096 67.424 0 134.816-0.064 202.24z m-159.552-180.128a427.456 427.456 0 0 0-172.864 113.408c34.528 18.24 71.488 31.712 109.28 41.376 19.712-59.456 47.392-118.24 91.968-163.2-9.696 1.92-19.008 5.28-28.352 8.416z m253.376-8.704c9.28 8.544 16.736 18.784 24.832 28.384 30.368 40.576 51.616 87.232 67.392 135.2a524.736 524.736 0 0 0 109.28-41.376 424.896 424.896 0 0 0-201.536-122.208zM172.096 249.28c-53.408 69.344-85.12 155.168-88.512 242.72 61.952-0.096 123.904-0.032 185.856-0.032 1.184-65.568 9.6-131.104 26.112-194.592-42.784-11.264-84.576-26.88-123.456-48.064z m553.792 48.064c16.512 63.52 24.928 129.024 26.08 194.592h185.952a428.672 428.672 0 0 0-88.672-242.688c-38.784 21.344-80.64 36.736-123.392 48.128zM306.592 491.776c61.856 0.32 123.68 0.064 185.536 0.16v-167.808a821.312 821.312 0 0 1-160.352-18.112c-16 60.576-23.808 123.2-25.184 185.792z m222.72-167.68l0.032 167.84c61.856-0.096 123.68 0.192 185.536-0.16-1.408-62.592-9.216-125.216-25.216-185.824a815.936 815.936 0 0 1-160.352 18.144z m-445.76 205.056a428.384 428.384 0 0 0 88.576 242.72c38.848-21.248 80.672-36.768 123.424-48.096a838.976 838.976 0 0 1-26.144-194.592H83.552z m223.04 0.128c1.376 62.624 9.088 125.312 25.248 185.888 52.576-11.744 106.464-17.152 160.224-18.176l0.032-167.84c-61.856 0.096-123.68-0.16-185.504 0.128z m222.72-0.128v167.808c53.888 0.992 107.744 6.656 160.416 18.112 15.744-60.704 24.096-123.328 24.928-186.016-61.76 0.224-123.552 0.032-185.312 0.096z m222.656 0a832.032 832.032 0 0 1-26.048 194.592c42.752 11.264 84.544 26.784 123.392 48.096a428.672 428.672 0 0 0 88.672-242.656H752z m-409.728 221.76c18.112 52 41.824 103.712 80.448 143.84 18.848 19.744 42.368 35.936 69.44 41.632 0.064-67.392 0-134.816 0.032-202.208a784 784 0 0 0-149.888 16.736z m187.072-16.768c0.032 67.424-0.032 134.848 0.032 202.272 35.296-7.456 63.744-32.416 85.472-60.096 29.504-37.056 48.864-80.96 64.384-125.408-22.56-5.44-45.664-8.096-68.576-11.392-27.04-2.624-54.144-5.184-81.312-5.344zM196.8 800.8c53.952 58.432 124.512 101.76 201.44 122.144-44.576-45.088-72.416-103.872-92.096-163.456a511.52 511.52 0 0 0-109.344 41.312z m518.56-41.344c-19.808 59.616-47.584 118.464-92.256 163.616a426.112 426.112 0 0 0 201.472-122.176c-34.496-18.272-71.488-31.648-109.216-41.44z m0 0" p-id="2828"></path></svg>