<?xml version="1.0" standalone="no"?><!DOCTYPE svg PUBLIC "-//W3C//DTD SVG 1.1//EN" "http://www.w3.org/Graphics/SVG/1.1/DTD/svg11.dtd"><svg t="1699892388949" class="icon" viewBox="0 0 1024 1024" version="1.1" xmlns="http://www.w3.org/2000/svg" p-id="1156" xmlns:xlink="http://www.w3.org/1999/xlink" width="200" height="200"><path d="M512 512m-512 0a512 512 0 1 0 1024 0 512 512 0 1 0-1024 0Z" fill="#FF822B" p-id="1157"></path><path d="M324.408781 655.018925C505.290126 655.018925 651.918244 508.387706 651.918244 327.509463c0-152.138029-103.733293-280.047334-244.329811-316.853972C205.813923 52.463528 47.497011 213.017581 8.987325 415.981977 47.587706 553.880127 174.183098 655.018925 324.408781 655.018925z" fill="#FFFFFF" fill-opacity=".2" p-id="1158"></path><path d="M512 1024c282.766631 0 512-229.233369 512-512 0-31.765705-2.891385-62.853911-8.433853-93.018889C928.057169 336.0999 809.874701 285.26268 679.824375 285.26268c-269.711213 0-488.357305 218.645317-488.357305 488.357305 0 54.959576 9.084221 107.802937 25.822474 157.10377C300.626556 989.489417 402.283167 1024 512 1024z" fill="#FFFFFF" fill-opacity=".15" p-id="1159"></path><path d="M732.535958 756.566238c36.389596 0 65.889478-29.499882 65.889477-65.889478 0 36.389596 29.502983 65.889478 65.889478 65.889478-17.053747 0-65.889478 29.502983-65.889478 65.889477 0-36.386495-29.499882-65.889478-65.889477-65.889477zM159.685087 247.279334c25.686819 0 46.51022-20.8234 46.51022-46.51022 0 25.686819 20.8234 46.51022 46.510219 46.51022-12.03607 0-46.51022 20.8234-46.510219 46.510219 0-25.686819-20.8234-46.51022-46.51022-46.510219z" fill="#FFFFFF" fill-opacity=".5" p-id="1160"></path><path d="M206.195307 333.32324c8.562531 0 15.503407-6.940875 15.503406-15.503407 0 8.562531 6.940875 15.503407 15.503407 15.503407-4.012282 0-15.503407 6.940875-15.503407 15.503406 0-8.562531-6.940875-15.503407-15.503406-15.503406z" fill="#FFFFFF" fill-opacity=".3" p-id="1161"></path><path d="M620.0882 497.495788h122.797057c21.834223 0 39.532911 17.700239 39.532911 39.533687v163.723724c0 21.834223-17.698689 39.533687-39.532911 39.533687H620.0882v-242.791098zM395.645384 428.329665H280.611658c-21.833447 0-39.533687 17.700239-39.533687 39.533687v232.891397c0 21.833447 17.700239 39.533687 39.533687 39.533687h115.033726V428.329665z" fill="#FFFFFF" opacity=".6" p-id="1162"></path><path d="M438.746404 282.937169c-29.540966 0-53.486752 23.945787-53.486752 53.486752v403.86374h248.435888V336.423921c0-29.540966-23.945011-53.486752-53.486753-53.486752H438.746404z m80.103001 153.453493c-4.651022-6.161829-13.905005-6.161829-18.556027 0l-23.611688 31.257968a11.594998 11.594998 0 0 1-5.48123 3.98205l-37.020584 12.793411c-7.297453 2.519304-10.155506 11.318262-5.73471 17.646752l22.431103 32.112206a11.598874 11.598874 0 0 1 2.096061 6.443991l0.726335 39.16393c0.139531 7.718371 7.624575 13.156966 15.012723 10.906647l37.468633-11.412058a11.639958 11.639958 0 0 1 6.776539 0l37.474834 11.412058c7.382722 2.250319 14.867767-3.188276 15.012724-10.906647l0.720908-39.16393c0.042634-2.307682 0.77517-4.551025 2.095286-6.443991l22.431879-32.112206c4.420796-6.328491 1.561968-15.127449-5.729284-17.646752l-37.026786-12.793411a11.653136 11.653136 0 0 1-5.480454-3.98205l-23.606262-31.257968z" fill="#FFFFFF" p-id="1163"></path></svg>