<?xml version="1.0" standalone="no"?><!DOCTYPE svg PUBLIC "-//W3C//DTD SVG 1.1//EN" "http://www.w3.org/Graphics/SVG/1.1/DTD/svg11.dtd"><svg t="1700134637535" class="icon" viewBox="0 0 1024 1024" version="1.1" xmlns="http://www.w3.org/2000/svg" p-id="4166" xmlns:xlink="http://www.w3.org/1999/xlink" width="200" height="200"><path d="M975.296 204.864c-2.048-2.218667-50.986667-54.933333-134.570667-81.493333-31.125333-9.92-63.253333-14.933333-95.466666-14.933334-96.170667 0-179.712 45.12-233.237334 83.370667C457.685333 152.768 373.141333 106.666667 276.842667 106.666667c-32.298667 0-64.362667 5.12-95.36 15.253333C98.24 149.12 50.389333 202.965333 48.384 205.226667a23.018667 23.018667 0 0 0-5.696 14.762666v594.709334l59.541333 71.402666c3.477333 8.96 12.245333 14.869333 21.909334 14.634667 3.626667 0.213333 7.338667-0.512 10.752-2.112 19.669333-4.970667 118.997333-29.013333 198.208-29.013333 36.352 0 63.722667 5.162667 79.146666 14.933333 7.317333 4.608 11.328 9.706667 13.013334 16.490667 0.192 12.437333 10.112 22.336 22.698666 22.570666a1626.709333 1626.709333 0 0 0 119.210667-2.581333 22.890667 22.890667 0 0 0 27.626667-17.066667c2.24-9.621333 7.978667-16.810667 17.984-22.613333 16.384-9.514667 42.133333-14.336 76.544-14.336 77.12 0 169.578667 23.978667 196.416 31.424a22.677333 22.677333 0 0 0 11.52 2.346667c8.96 0 17.365333-5.504 21.013333-13.717334L981.333333 815.018667V221.034667l-0.021333-1.28a22.997333 22.997333 0 0 0-6.016-14.890667z m-58.666667 496.554667c-34.496-12.906667-80.725333-25.344-138.517333-36.117334-34.986667-6.528-57.514667-5.44-87.530667-5.44-57.173333 0-104.490667 11.733333-140.736 34.922667V265.216c67.349333-49.194667 124.650667-74.645333 190.976-74.645333 26.24 0 52.309333 4.053333 77.44 11.989333 53.674667 16.96 84.437333 42.624 98.368 55.552v443.306667z m-574.293333 37.184c69.930667 0 121.301333 17.472 152.704 51.925333l0.106667 0.106667 2.154666 2.048 1.493334 1.109333a19.52 19.52 0 0 0 1.493333 0.96c0.448 0.277333 1.792 0.96 1.792 0.96l1.194667 0.533333c0.362667 0.149333 2.069333 0.746667 2.56 0.874667l1.216 0.32a19.498667 19.498667 0 0 0 2.986666 0.426667l1.962667 0.106666a38.677333 38.677333 0 0 0 3.904-0.341333 23.296 23.296 0 0 0 5.653333-1.749333s1.173333-0.576 1.664-0.853334a25.301333 25.301333 0 0 0 2.453334-1.578666l0.789333-0.576 3.072-3.029334 0.128-0.128c30.677333-36.821333 81.493333-55.488 150.997333-55.488 39.296 0 122.346667 6.528 238.954667 50.133334l-31.338667 35.754666a1078.186667 1078.186667 0 0 0-105.045333-22.250666c-35.008-5.461333-66.517333-8.234667-93.674667-8.234667-42.730667 0-76.330667 6.912-99.84 20.565333-14.954667 8.682667-26.112 20.117333-33.173333 34.026667a1624.810667 1624.810667 0 0 1-90.986667 2.197333c-5.824-12.928-15.488-23.722667-28.757333-32.106666-23.125333-14.634667-58.368-22.058667-104.746667-22.058667-75.776 0-163.285333 19.306667-198.741333 27.989333l-29.226667-35.029333c51.242667-17.877333 147.648-46.613333 238.272-46.613333z m-100.906667-66.56c-57.685333 10.026667-100.842667 21.525333-135.168 33.557333v-446.933333c13.525333-13.12 40.512-39.466667 93.717334-56.853334a249.088 249.088 0 0 1 77.482666-12.330666c66.368 0 128.341333 25.109333 196.842667 75.413333v430.634667c-36.608-21.930667-77.845333-32.64-135.296-32.64-29.952 0-62.784 3.072-97.6 9.130666z" fill="#333333" p-id="4167"></path></svg>