<?xml version="1.0" standalone="no"?><!DOCTYPE svg PUBLIC "-//W3C//DTD SVG 1.1//EN" "http://www.w3.org/Graphics/SVG/1.1/DTD/svg11.dtd"><svg t="1700134629438" class="icon" viewBox="0 0 1024 1024" version="1.1" xmlns="http://www.w3.org/2000/svg" p-id="4031" xmlns:xlink="http://www.w3.org/1999/xlink" width="200" height="200"><path d="M568.917333 920.490667a16.64 16.64 0 0 1 10.837334-26.154667c127.573333-20.778667 256.853333-41.642667 396.8-64.426667a16.64 16.64 0 0 0 13.994666-16.426666V212.693333a16.64 16.64 0 0 1 16.597334-16.682666 16.64 16.64 0 0 1 16.597333 16.682666v643.242667a14.976 14.976 0 0 1 0 1.493333c-2.389333 27.605333-30.506667 73.514667-47.573333 74.410667h-393.728c-4.010667 0.042667-9.002667-5.077333-13.525334-11.349333z m-519.552 11.306666c-17.493333-0.853333-48.554667-49.664-49.408-76.8V212.949333A16.682667 16.682667 0 0 1 16.64 196.266667h1.536a16.64 16.64 0 0 1 16.597333 16.682666v600.490667a16.597333 16.597333 0 0 0 13.994667 16.426667c140.032 22.912 267.690667 43.733333 395.178667 64.426666a16.64 16.64 0 0 1 10.837333 26.112c-4.522667 6.314667-9.514667 11.52-13.610667 11.648z m506.538667-33.792zM109.269333 799.189333a16.597333 16.597333 0 0 1-17.066666-16.768l0.256-36.992S92.16 343.893333 92.16 110.592a16.682667 16.682667 0 0 1 18.304-16.597333c82.730667 8.32 156.458667 12.8 228.565333 25.6 100.48 18.218667 156.16 67.072 151.381334 186.581333v553.173333a1026.773333 1026.773333 0 0 0-381.141334-60.16z m427.605334 36.394667V306.261333c-4.736-119.466667 50.816-168.362667 151.338666-186.581333 72.149333-12.8 145.962667-17.365333 228.608-25.6a16.64 16.64 0 0 1 18.304 16.554667c0 233.429333-0.298667 635.008-0.298666 635.008v36.949333a16.682667 16.682667 0 0 1-17.066667 16.768 1037.482667 1037.482667 0 0 0-358.741333 51.84 16.512 16.512 0 0 1-5.504 0.938667 16.682667 16.682667 0 0 1-16.64-16.597334z" fill="#2BEAC1" p-id="4032"></path></svg>