<?xml version="1.0" standalone="no"?><!DOCTYPE svg PUBLIC "-//W3C//DTD SVG 1.1//EN" "http://www.w3.org/Graphics/SVG/1.1/DTD/svg11.dtd"><svg t="1699892182855" class="icon" viewBox="0 0 1024 1024" version="1.1" xmlns="http://www.w3.org/2000/svg" p-id="10944" xmlns:xlink="http://www.w3.org/1999/xlink" width="200" height="200"><path d="M431.4 226.3C229.3 226.3 64 391.6 64 593.6S229.3 961 431.4 961s367.4-165.3 367.4-367.4-165.4-367.3-367.4-367.3z m-112.3 61.2c-18.4 22.5-34.7 51-49 83.7-16.3-8.2-30.6-18.4-44.9-30.6 28.6-22.5 59.2-40.9 93.9-53.1z m-124.5 81.6c16.3 16.3 36.7 28.6 59.2 40.8-16.3 49-24.5 104.1-26.5 163.3H104.8c6.1-79.6 38.8-151 89.8-204.1zM106.9 614h122.5c2 59.2 12.2 114.3 26.5 163.3-22.5 12.2-42.9 24.5-59.2 40.8-53.1-53-85.8-124.5-89.8-204.1z m118.3 232.7c12.2-10.2 28.6-20.4 44.9-30.6 14.3 32.7 30.6 61.2 49 83.7-34.7-12.3-65.3-30.6-93.9-53.1zM411 916.1c-42.9-10.2-79.6-55.1-106.1-118.4 32.7-12.2 67.4-18.4 106.1-20.4v138.8z m0-179.6c-42.9 2-83.7 10.2-118.4 24.5-12.2-42.9-20.4-93.9-22.5-146.9H413v122.5h-2z m0-163.3H268.1c2-53.1 10.2-104.1 22.5-146.9 36.7 14.3 75.5 22.5 118.4 24.5v122.5h2z m0-163.2c-38.8-2-73.5-10.2-106.1-20.4 26.5-63.3 63.3-106.1 106.1-118.4V410z m226.5-69.4c-12.2 10.2-28.6 20.4-44.9 30.6-14.3-32.7-30.6-61.2-49-83.7 34.7 12.2 65.3 30.6 93.9 53.1z m-185.7-69.4c42.9 10.2 79.6 55.1 106.1 118.4-32.7 12.2-67.4 18.4-106.1 20.4V271.2z m0 179.6c42.9-2 83.7-10.2 118.4-24.5 12.2 42.9 20.4 93.9 22.5 146.9h-143V450.7h2.1z m0 163.2h142.9c-2 53.1-10.2 104.1-22.5 146.9-36.7-14.3-75.5-22.5-118.4-24.5V613.9h-2z m0 302.1V777.3c38.8 2 73.5 10.2 106.1 20.4-26.5 65.3-63.3 108.2-106.1 118.4z m91.8-16.3c18.4-22.5 34.7-51 49-83.7 16.3 8.2 30.6 18.4 44.9 30.6-28.6 22.5-59.2 40.8-93.9 53.1z m124.5-81.7c-16.3-16.3-36.7-28.6-59.2-40.8 16.3-49 24.5-104.1 26.5-163.3h122.5c-6.1 79.6-38.8 151.1-89.8 204.1z m-32.6-244.9c-2-59.2-12.2-114.3-26.5-163.3 22.5-12.2 42.9-24.5 59.2-40.8 51 53.1 85.7 124.5 89.8 204.1H635.5zM594.6 63c-118.4 0-222.5 55.1-289.8 142.9 30.6-10.2 63.3-16.3 95.9-18.4-4.1-2-8.2-6.1-12.2-8.2 28.6-22.5 59.2-40.8 93.9-53.1-14.3 16.3-26.5 38.8-38.8 61.2 14.3 0 28.6 2 42.9 4.1 24.5-44.9 55.1-73.5 89.8-81.6V214c14.3 6.1 28.6 10.2 40.8 18.4V109.9c42.9 10.2 79.6 55.1 106.1 118.4-24.5 10.2-51 16.3-79.6 18.4 16.3 10.2 32.7 20.4 46.9 32.7 16.3-4.1 32.7-8.2 46.9-14.3 8.2 24.5 12.2 51 16.3 77.6 24.5 30.6 44.9 67.4 59.2 108.2H919c-4.1 77.6-36.7 144.9-85.7 198-4.1 24.5-8.2 49-16.3 71.4 87.9-67.5 143-171.6 143-289.9C962 228.3 796.7 63 594.6 63z m112.3 61.2c34.7 12.2 65.3 30.6 93.9 53.1-12.2 10.2-28.6 20.4-44.9 30.6-12.3-32.7-28.6-61.2-49-83.7zM798.7 410c-2-59.2-12.2-114.3-26.5-163.3 22.5-12.2 42.9-24.5 59.2-40.8 51 53.1 85.7 124.5 89.8 204.1H798.7z" fill="#FF6000" p-id="10945"></path></svg>