<?xml version="1.0" standalone="no"?><!DOCTYPE svg PUBLIC "-//W3C//DTD SVG 1.1//EN" "http://www.w3.org/Graphics/SVG/1.1/DTD/svg11.dtd"><svg t="1699892214462" class="icon" viewBox="0 0 1024 1024" version="1.1" xmlns="http://www.w3.org/2000/svg" p-id="12316" xmlns:xlink="http://www.w3.org/1999/xlink" width="200" height="200"><path d="M160.3 127.6h704c17.7 0 32 14.3 32 32v704c0 17.7-14.3 32-32 32h-704c-17.7 0-32-14.3-32-32v-704c0-17.6 14.3-32 32-32z" fill="#FCA128" p-id="12317"></path><path d="M531.3 685c-1.4-8.1-2.2-16.3-2.2-24.4 0-8.1 0.7-16.4 2.2-24.4 3.2-18 18.7-31.1 37-31.1h1.7c0.4 0 1.3-0.1 1.9-1.1 0.6-1 0.1-2-0.1-2.2-10-15.8-6.7-36.8 7.8-48.9 5.2-4.4 10.8-8.2 16.5-11.8-24.1-18-52.1-31.1-82.4-38.1 44.8-19 76.2-63.3 76.2-115 0-69-56.1-124.9-125.3-124.9S339.3 319 339.3 388c0 51.7 31.5 96 76.3 115-87.2 19.9-154.7 91.4-167.9 180.6-2.5 16.9 10.2 32.3 27.4 32.3h291.7c-17.6-0.6-32.4-13.4-35.5-30.9z m246.8-43.4c-0.5-3.1-3.3-5.4-6.4-5.3-12.1 0.5-24-5.5-30.5-16.6-6.5-11.1-5.7-24.5 0.8-34.6 1.7-2.7 1-6.2-1.5-8.2-9.7-8.1-20.8-14.6-32.9-19-3-1.1-6.4 0.1-7.8 2.9-5.6 10.7-16.8 18-29.7 18-12.9 0-24.1-7.3-29.7-18-1.5-2.8-4.9-3.9-7.8-2.9-12.1 4.4-23.2 10.9-32.9 18.9-2.4 2-3.2 5.6-1.5 8.2 6.5 10.2 7.2 23.5 0.8 34.6-6.5 11.1-18.4 17.2-30.5 16.6-3.1-0.1-5.8 2.2-6.4 5.3-1.1 6.2-1.7 12.5-1.7 19s0.6 12.8 1.7 19c0.5 3.1 3.2 5.4 6.4 5.3 12.1-0.5 24 5.5 30.5 16.6 6.5 11.2 5.7 24.5-0.8 34.6-1.7 2.7-1 6.2 1.5 8.2 9.7 8.1 20.8 14.6 32.9 19 3 1.1 6.4-0.1 7.8-2.9 5.6-10.7 16.8-18 29.7-18 12.9 0 24.1 7.3 29.7 18 1.5 2.8 4.9 3.9 7.8 2.9 12.1-4.4 23.2-10.9 32.9-19 2.4-2 3.2-5.6 1.5-8.2-6.5-10.2-7.2-23.5-0.8-34.6 6.5-11.1 18.4-17.2 30.5-16.6 3.1 0.1 5.8-2.2 6.4-5.3 1.1-6.2 1.7-12.5 1.7-19-0.1-6.4-0.6-12.7-1.7-18.9z m-108 61.4c-23.5 0-42.5-19-42.5-42.4s19-42.4 42.5-42.4 42.5 19 42.5 42.4-19 42.4-42.5 42.4z" fill="#FFFFFF" p-id="12318"></path></svg>