<?xml version="1.0" standalone="no"?><!DOCTYPE svg PUBLIC "-//W3C//DTD SVG 1.1//EN" "http://www.w3.org/Graphics/SVG/1.1/DTD/svg11.dtd"><svg t="1699892172699" class="icon" viewBox="0 0 1032 1024" version="1.1" xmlns="http://www.w3.org/2000/svg" p-id="10804" xmlns:xlink="http://www.w3.org/1999/xlink" width="201.5625" height="200"><path d="M246.99503 445.93a148.08 148.08 0 0 1-101.15-40 26.39 26.39 0 0 1 36.16-38.46 94.58 94.58 0 1 0 119.38-146.12 26.39 26.39 0 0 1 30.46-43.11 147.41 147.41 0 0 1-84.85 267.69zM721.87503 869.11a26.34 26.34 0 0 1-19.28-8.36 131.43 131.43 0 0 1-35.57-90.09c0-72.77 59.2-132 132-132A130.51 130.51 0 0 1 879.40503 666a26.39 26.39 0 0 1-32.24 41.8 78.11 78.11 0 0 0-48.17-16.36 79.14 79.14 0 0 0-57.85 133.2 26.39 26.39 0 0 1-19.27 44.43zM116.87503 693.45c-22.26 0-41.2-1.36-56.57-4.09C26.79503 683.43 6.99503 669.87 1.47503 649c-9.9-37 32.09-68 64.54-88.16 14.18-8.76 30.39-17.72 48.21-26.65a26.39 26.39 0 1 1 23.66 47.18c-16.43 8.24-31.27 16.44-44.1 24.36-21.67 13.43-32.1 22.93-37 28.48 10.71 3.59 37.07 8.73 96.57 5.28 96.22-5.61 233.39-30.71 376.32-68.89s274.3-84.88 360.36-128.1c53.39-26.71 73.69-44.33 81.18-52.79-10.71-3.59-37.07-8.72-96.58-5.28a26.39 26.39 0 0 1-3.05-52.7c40-2.31 72.27-1.35 96.05 2.87 33.5 5.93 53.31 19.5 58.88 40.32s-4.85 42.51-30.94 64.37c-18.52 15.53-46.07 32.48-81.88 50.4-89.17 44.79-224.22 92.87-370.46 131.95s-287.24 64.78-386.87 70.58q-21.21 1.23-39.49 1.23z" fill="#FF9600" p-id="10805"></path><path d="M125.97503 584.22A26.4 26.4 0 0 1 99.79503 561a416.78 416.78 0 0 1 414.1-466h2.63a417.07 417.07 0 0 1 380.79 252.72 26.4 26.4 0 1 1-48.52 20.8 364.26 364.26 0 0 0-332.59-220.75c-200.88-1.22-365.27 161.14-366.5 362a358.86 358.86 0 0 0 2.5 44.95A26.39 26.39 0 0 1 129.14503 584a28.37 28.37 0 0 1-3.17 0.22zM513.92503 929h-2.58a416.51 416.51 0 0 1-338.32-176.8 26.4 26.4 0 1 1 43.13-30.44A365.25 365.25 0 0 0 511.67503 876.23c187.72 1.17 344.31-138.45 364.39-324.71a26.39 26.39 0 0 1 52.48 5.66A417.11 417.11 0 0 1 513.92503 929z" fill="#142E4F" p-id="10806"></path></svg>