<?xml version="1.0" standalone="no"?><!DOCTYPE svg PUBLIC "-//W3C//DTD SVG 1.1//EN" "http://www.w3.org/Graphics/SVG/1.1/DTD/svg11.dtd"><svg t="1699892239389" class="icon" viewBox="0 0 1024 1024" version="1.1" xmlns="http://www.w3.org/2000/svg" p-id="13639" xmlns:xlink="http://www.w3.org/1999/xlink" width="200" height="200"><path d="M512 512m-512 0a512 512 0 1 0 1024 0 512 512 0 1 0-1024 0Z" fill="#8BB7F9" opacity=".15" p-id="13640"></path><path d="M791.784727 432.523636l-84.002909-84.002909a77.346909 77.346909 0 0 0-54.690909-22.702545h-282.402909a77.021091 77.021091 0 0 0-54.690909 22.702545l-84.002909 84.002909a77.533091 77.533091 0 0 0 0 109.381819l225.326545 225.314909a77.533091 77.533091 0 0 0 109.381818 0l225.326546-225.314909a77.358545 77.358545 0 0 0-0.186182-109.381819m-84.736 95.069091l-179.933091 179.921455a21.469091 21.469091 0 0 1-30.254545 0l-179.898182-179.921455a29.800727 29.800727 0 0 1 0-41.995636c0.616727-0.616727 1.256727-1.163636 1.92-1.780364a29.509818 29.509818 0 0 1 41.6 3.490909l144.162909 169.890909a9.495273 9.495273 0 0 0 14.568727 0l144.162909-169.890909c0.442182-0.512 0.907636-1.024 1.396364-1.501091a29.742545 29.742545 0 0 1 42.309818 41.797819" fill="#6DA9F7" p-id="13641"></path></svg>