<?xml version="1.0" standalone="no"?><!DOCTYPE svg PUBLIC "-//W3C//DTD SVG 1.1//EN" "http://www.w3.org/Graphics/SVG/1.1/DTD/svg11.dtd"><svg t="1699892094414" class="icon" viewBox="0 0 1024 1024" version="1.1" xmlns="http://www.w3.org/2000/svg" p-id="7313" xmlns:xlink="http://www.w3.org/1999/xlink" width="200" height="200"><path d="M47.82 205.722h263.066c23.655 0 42.701-19.15 42.701-42.804s-19.046-42.7-42.7-42.7H47.82c-23.552 0-42.701 19.046-42.701 42.7 0 23.552 19.149 42.804 42.7 42.804z m0 381.44h299.214c23.552 0 42.7-19.047 42.7-42.701 0-23.552-19.148-42.701-42.7-42.701H47.82c-23.552 0-42.701 19.149-42.701 42.7 0 23.655 19.149 42.702 42.7 42.702z m866.51 285.9H47.82c-23.551 0-42.7 19.047-42.7 42.701s19.149 42.803 42.7 42.803h866.51c23.552 0 42.7-19.148 42.7-42.803 0-23.654-19.046-42.7-42.7-42.7z m92.672-257.536l-93.287-97.587c39.936-47.923 63.898-109.363 63.898-176.435 0.102-152.166-123.7-275.968-275.968-275.968S425.37 189.338 425.37 341.606s123.904 276.07 276.275 276.07c54.374 0 105.062-16.076 147.865-43.417l95.847 100.352c8.397 8.807 19.558 13.107 30.822 13.107 10.752 0 21.3-3.788 29.594-11.878 16.896-16.18 17.613-43.315 1.229-60.314z m-305.357-83.25c-105.165 0-190.669-85.607-190.669-190.67s85.504-190.668 190.669-190.668c105.062 0 190.669 85.504 190.669 190.668-0.103 105.063-85.607 190.67-190.67 190.67z" fill="#DD524D" p-id="7314"></path></svg>