<?xml version="1.0" standalone="no"?><!DOCTYPE svg PUBLIC "-//W3C//DTD SVG 1.1//EN" "http://www.w3.org/Graphics/SVG/1.1/DTD/svg11.dtd"><svg t="1699892338936" class="icon" viewBox="0 0 1024 1024" version="1.1" xmlns="http://www.w3.org/2000/svg" p-id="10339" xmlns:xlink="http://www.w3.org/1999/xlink" width="200" height="200"><path d="M640.4 315.4c-0.9 1.2-0.9 3.1 0 4.2l89.7 122.6c0.9 1.2 0.4 2-1.1 1.8l-151-16.4c-1.4-0.2-3.1 0.8-3.7 2.1l-61.3 139c-0.6 1.3-1.5 1.3-2.1 0l-61.3-139c-0.6-1.3-2.2-2.3-3.7-2.1L295 444c-1.4 0.2-1.9-0.7-1.1-1.8l89.7-122.6c0.9-1.2 0.9-3.1 0-4.2l-89.7-122.6c-0.9-1.2-0.4-2 1.1-1.8l151 16.4c1.4 0.2 3.1-0.8 3.7-2.1l61.3-139c0.6-1.3 1.5-1.3 2.1 0l61.3 139c0.6 1.3 2.2 2.3 3.7 2.1L729 191c1.4-0.2 1.9 0.7 1.1 1.8l-89.7 122.6z" fill="#58D598" p-id="10340"></path><path d="M512 586.6m-373.6 0a373.6 373.6 0 1 0 747.2 0 373.6 373.6 0 1 0-747.2 0Z" fill="#FF5C7A" p-id="10341"></path><path d="M374.7 615.1h269.7c8.3 0.9 12.5 5.5 12.5 13.8 0 9.2-4.2 13.8-12.5 13.8h-81.6V716c-1.9 12.9 5.1 18.9 20.8 18h60.9c17.5 3.7 24.9-10.1 22.1-41.5 0-8.3 5.1-12.5 15.2-12.5 9.2 0 14.3 4.2 15.2 12.5 2.8 50.7-12.5 74.2-45.7 70.6h-76.1c-28.6 0-42.4-13.4-41.5-40.1v-80.2h-65c2.8 72.9-49.8 100.5-119 118.9-10.2 1.8-17.5-1.4-22.1-9.7-2.8-8.3 0.5-14.3 9.7-18 59-12.9 106-31.3 102.4-91.2h-65c-8.3 0-12.5-4.6-12.5-13.8 0.1-8.3 4.2-12.9 12.5-13.9z m278-137.1H366.4c-7.4 0-10.6 3.2-9.7 9.7v27.7c-0.9 10.2-5.5 15.7-13.8 16.6-9.2-0.9-13.8-6.4-13.8-16.6v-41.5c0-15.7 8.3-23.5 24.9-23.5h135.6c-0.9 0-1.9-0.9-2.8-2.8-2.8-5.5-5.5-11.5-8.3-18-4.6-7.4-2.8-13.4 5.5-18 8.3-3.7 15.2-2.3 20.8 4.2 5.5 9.2 11.5 20.8 18 34.6h139.7c29.5 4.6 36 27.2 19.4 67.8-4.6 9.2-11.5 12.5-20.8 9.7-7.4-4.6-9.2-12-5.5-22.1 5.4-17.6 4.5-26.8-2.9-27.8z m-48.4 81.7H407.9c-8.3 0-12.5-4.6-12.5-13.8 0-8.3 4.2-12.9 12.5-13.8h196.5c8.3 0.9 12.5 5.5 12.5 13.8-0.1 9.2-4.3 13.8-12.6 13.8z" fill="#FDDE80" p-id="10342"></path><path d="M657.9 772.5c-2.4 0-4.9-0.2-7.5-0.4l-75.1 0.1c-17.2 0-30.4-4.5-39-13.5-8.2-8.5-12.1-20.6-11.5-36v-70.8h-46.9c-2 75.2-64.3 102.2-125.7 118.6-14.6 2.6-25.9-2.3-32.3-14-5-14.4 0.6-25.3 14.2-30.8 60.4-13.3 95.6-29.9 96.9-73.8h-56.1c-13.2 0-21.5-8.8-21.5-22.8 0-12.9 7.6-21.4 20.5-22.8l1-0.1h269.7c13.8 1.5 21.5 10 21.5 22.9 0 14.1-8.2 22.8-21.5 22.8h-72.5v64.2c-0.5 4.1-0.3 6.3 0.5 7.2 0.4 0.4 2.5 2.2 10.7 1.8h61.4c6.9 1.2 8.5-0.2 9.1-0.6 1.5-1.3 6.2-7.5 4.1-31.1 0-14.2 9-22.3 24.2-22.3 13.7 0 22.8 7.7 24.2 20.5 1.9 34.2-3.8 56.8-17.4 69.6-8.3 7.5-18.6 11.3-31 11.3zM459.4 633.8h83.4V723c-0.4 10.6 1.8 18.3 6.5 23.1 5.1 5.3 13.9 8 26 8h76.1c11.5 1.2 19.3-0.8 24.8-6 9.2-8.7 13.3-27.7 11.8-55-0.3-2.2-0.5-3.9-6.2-3.9-6.2 0-6.2 1.3-6.2 3.4 2 22.7-1.2 37.4-10.1 45.3-4.1 3.6-11.4 7.4-22.9 5l-59 0.2c-10.8 0.7-19.3-1.9-24.5-7.6-4.7-5.1-6.4-12-5.2-20.7l-0.1-81h90.6c2.7 0 3.4 0 3.4-4.8 0-3.7-0.7-4.5-4.4-4.9l-268.1 0.1c-3.3 0.4-4 1.3-4 4.8 0 4.8 0.7 4.8 3.4 4.8h73.5l0.5 8.5c4.3 69.8-54.3 88.5-109.5 100.6-4.5 1.9-3.9 3.7-3 6.3 1.6 2.6 4.6 4.9 12 3.7 68.5-18.3 114.1-44.1 111.6-109.7l-0.4-9.4z m144.9-65H407.9c-13.2 0-21.5-8.8-21.5-22.9 0-12.8 7.6-21.4 20.5-22.8l197.5-0.1c13.8 1.5 21.5 10 21.5 22.8-0.1 14.2-8.3 23-21.6 23z m-1-27.8l-195.5 0.1c-2.7 0.4-3.4 1.1-3.4 4.8 0 4.8 0.7 4.8 3.4 4.8h196.5c2.7 0 3.4 0 3.4-4.8 0.1-3.7-0.7-4.5-4.4-4.9z m-259.5 0c-15.8-1.4-23.8-10.7-23.8-25.6v-41.5c0-20.7 12.4-32.5 33.9-32.5h119.8c-1.2-2.6-2.4-5.4-3.6-8.2-2.9-4.4-4-10-2.6-15.4 1.4-5.6 5.5-10.4 12.1-14 12.7-5.7 23.8-3.3 32 6.2 5.7 9.3 11.2 19.6 16.9 31.4h134c16.2 2.4 26.6 8.8 32.4 19.1 7.9 14.1 6.4 34.1-4.7 61.2-6.8 13.7-18.3 18.9-31.7 14.9l-2.2-1c-6.5-4-16.3-13.6-9.2-32.9 2.8-8.9 3.1-13.5 3-15.5H365.7v28.3c-1.3 15.1-9.3 24.1-21.9 25.5z m10.1-81.6c-13.2 0-15.9 5.6-15.9 14.5v41.5c0 6.6 2.2 7.3 5.7 7.6 0.3-0.2 3.2-0.5 4-8.4v-26.9c-0.9-5.8 1.5-10.3 3.6-12.9 3.4-3.9 8.4-5.8 15.1-5.8l287.5 0.1c4.8 0.6 8.7 3.1 11.2 6.9 4.3 6.7 4 16.7-1 32.4-2.7 7.3-1 9.8 0.7 11.1 3.7 0.8 6.2 0 8.9-5.4 8.3-20.4 10.3-36.1 5.4-44.8-3-5.3-8.9-8.6-18.1-10l-144 0.1-2.4-5.2c-6.3-13.5-12.2-24.9-17.6-33.8-1.6-1.7-4.1-2.9-9.4-0.5-1.7 1-2.6 2.1-2.6 2.4 0 0.2 0.2 1 1.1 2.6 3.3 7.5 6 13.4 8.7 18.8-0.4-0.5-2.4-2.2-5.3-2.2v18H353.9z" fill="#FDDE80" p-id="10343"></path></svg>