<?xml version="1.0" standalone="no"?><!DOCTYPE svg PUBLIC "-//W3C//DTD SVG 1.1//EN" "http://www.w3.org/Graphics/SVG/1.1/DTD/svg11.dtd"><svg t="1699892447139" class="icon" viewBox="0 0 1024 1024" version="1.1" xmlns="http://www.w3.org/2000/svg" p-id="1145" xmlns:xlink="http://www.w3.org/1999/xlink" width="200" height="200"><path d="M105.8304 88.8832m101.9392 0l552.3968 0q101.9392 0 101.9392 101.9392l0 626.2272q0 101.9392-101.9392 101.9392l-552.3968 0q-101.9392 0-101.9392-101.9392l0-626.2272q0-101.9392 101.9392-101.9392Z" fill="#3DD5BB" p-id="1146"></path><path d="M517.4272 538.1632h-235.52a40.96 40.96 0 0 1 0-81.92h235.52a40.96 40.96 0 0 1 0 81.92zM667.1872 356.352H281.9584a40.96 40.96 0 0 1 0-81.92h385.2288a40.96 40.96 0 1 1 0 81.92z" fill="#FFFFFF" p-id="1147"></path><path d="M716.1344 740.1984m-202.0352 0a202.0352 202.0352 0 1 0 404.0704 0 202.0352 202.0352 0 1 0-404.0704 0Z" fill="#ADF0EA" p-id="1148"></path><path d="M835.9424 800.4608h-124.8768a40.96 40.96 0 0 1-40.96-40.96V645.12a40.96 40.96 0 1 1 81.92 0v73.3184h83.9168a40.96 40.96 0 0 1 0 81.92z" fill="#FFFFFF" p-id="1149"></path></svg>