<?xml version="1.0" standalone="no"?><!DOCTYPE svg PUBLIC "-//W3C//DTD SVG 1.1//EN" "http://www.w3.org/Graphics/SVG/1.1/DTD/svg11.dtd"><svg t="1699891946996" class="icon" viewBox="0 0 1024 1024" version="1.1" xmlns="http://www.w3.org/2000/svg" p-id="1495" xmlns:xlink="http://www.w3.org/1999/xlink" width="200" height="200"><path d="M972.8 1024H51.2c-21.2 0-38.4-17.2-38.4-38.4s17.2-38.4 38.4-38.4h921.6c21.2 0 38.4 17.2 38.4 38.4S994 1024 972.8 1024zM153.6 870.4c-21.2 0-38.4-17.2-38.4-38.4V448c0-21.2 17.2-38.4 38.4-38.4S192 426.8 192 448v384c0 21.2-17.2 38.4-38.4 38.4zM384 870.4c-21.2 0-38.4-17.2-38.4-38.4V38.4C345.6 17.2 362.8 0 384 0s38.4 17.2 38.4 38.4V832c0 21.2-17.2 38.4-38.4 38.4zM614.4 870.4c-21.2 0-38.4-17.2-38.4-38.4V268.8c0-21.2 17.2-38.4 38.4-38.4s38.4 17.2 38.4 38.4V832c0 21.2-17.2 38.4-38.4 38.4zM844.8 870.4c-21.2 0-38.4-17.2-38.4-38.4V422.4c0-21.2 17.2-38.4 38.4-38.4s38.4 17.2 38.4 38.4V832c0 21.2-17.2 38.4-38.4 38.4z" fill="#27D0D8" p-id="1496"></path></svg>