<?xml version="1.0" standalone="no"?><!DOCTYPE svg PUBLIC "-//W3C//DTD SVG 1.1//EN" "http://www.w3.org/Graphics/SVG/1.1/DTD/svg11.dtd"><svg t="1699892249098" class="icon" viewBox="0 0 1024 1024" version="1.1" xmlns="http://www.w3.org/2000/svg" p-id="14744" xmlns:xlink="http://www.w3.org/1999/xlink" width="200" height="200"><path d="M556.16 149.333333a97.429333 97.429333 0 0 1 40.533333 11.093334c24.96 12.8 40.106667 142.741333 10.453334 219.285333l-33.493334 86.997333h197.333334a92.714667 92.714667 0 0 1 91.52 107.136l-35.84 222.912A92.138667 92.138667 0 0 1 735.36 874.666667H181.973333a21.824 21.824 0 0 1-21.76-21.76V445.866667a21.802667 21.802667 0 0 1 21.76-21.76h52.053334c37.12 0 97.92 0 133.12-0.405334a135.68 135.68 0 0 0 100.266666-49.344 309.994667 309.994667 0 0 0 70.186667-213.333333 11.114667 11.114667 0 0 1 2.56-6.784 22.677333 22.677333 0 0 1 16-4.928m0-64a76.970667 76.970667 0 0 0-82.346667 81.536c6.613333 72.32-41.813333 192.384-107.306666 192.96-34.986667 0.298667-95.573333 0.405333-132.48 0.405333H181.973333a85.76 85.76 0 0 0-85.76 85.76V852.906667A85.76 85.76 0 0 0 181.973333 938.666667h553.386667a156.714667 156.714667 0 0 0 154.666667-131.797334l35.626666-222.912a156.458667 156.458667 0 0 0-154.666666-181.333333h-103.893334c32.64-85.056 31.786667-264.832-43.093333-300.138667a160 160 0 0 0-67.84-17.237333z" fill="#333333" p-id="14745"></path><path d="M288 426.666667h64v448h-64z" fill="#FF9C00" p-id="14746"></path></svg>