<?xml version="1.0" standalone="no"?><!DOCTYPE svg PUBLIC "-//W3C//DTD SVG 1.1//EN" "http://www.w3.org/Graphics/SVG/1.1/DTD/svg11.dtd"><svg t="1699892404758" class="icon" viewBox="0 0 1024 1024" version="1.1" xmlns="http://www.w3.org/2000/svg" p-id="1602" xmlns:xlink="http://www.w3.org/1999/xlink" width="200" height="200"><path d="M512 512m-512 0a512 512 0 1 0 1024 0 512 512 0 1 0-1024 0Z" fill="#3494FD" p-id="1603"></path><path d="M324.408781 655.018925C505.290126 655.018925 651.918244 508.387706 651.918244 327.509463c0-152.138029-103.733293-280.047334-244.329811-316.853972C205.813923 52.463528 47.497011 213.017581 8.987325 415.981977 47.587706 553.880127 174.183098 655.018925 324.408781 655.018925z" fill="#FFFFFF" fill-opacity=".2" p-id="1604"></path><path d="M512 1024c282.766631 0 512-229.233369 512-512 0-31.765705-2.891385-62.853911-8.433853-93.018889C928.057169 336.0999 809.874701 285.26268 679.824375 285.26268c-269.711213 0-488.357305 218.645317-488.357305 488.357305 0 54.959576 9.084221 107.802937 25.822474 157.10377C300.626556 989.489417 402.283167 1024 512 1024z" fill="#FFFFFF" fill-opacity=".15" p-id="1605"></path><path d="M732.535958 756.566238c36.389596 0 65.889478-29.499882 65.889477-65.889478 0 36.389596 29.502983 65.889478 65.889478 65.889478-17.053747 0-65.889478 29.502983-65.889478 65.889477 0-36.386495-29.499882-65.889478-65.889477-65.889477zM159.685087 247.279334c25.686819 0 46.51022-20.8234 46.51022-46.51022 0 25.686819 20.8234 46.51022 46.510219 46.51022-12.03607 0-46.51022 20.8234-46.510219 46.510219 0-25.686819-20.8234-46.51022-46.51022-46.510219z" fill="#FFFFFF" fill-opacity=".5" p-id="1606"></path><path d="M206.195307 333.32324c8.562531 0 15.503407-6.940875 15.503406-15.503407 0 8.562531 6.940875 15.503407 15.503407 15.503407-4.012282 0-15.503407 6.940875-15.503407 15.503406 0-8.562531-6.940875-15.503407-15.503406-15.503406z" fill="#FFFFFF" fill-opacity=".3" p-id="1607"></path><path d="M298.813432 447.877911c0-20.371476 12.118238-36.986477 27.136388-36.986477h462.979779v-27.768927c0-22.419476-12.736048-40.628227-28.37666-40.628227H525.229057l-24.547319-36.645402c-10.667894-22.191576-26.307731-32.092827-38.633714-32.092827H267.326014c-12.325208 0-22.372191 14.339876-22.372191 32.092827v385.22942l53.859609-243.200387z" fill="#FFFFFF" p-id="1608"></path><path d="M795.565057 435.857344h-451.381681c-13.361611 0-24.237251 14.794901-24.23725 33.117602l-55.516149 250.597838c0 18.322701 10.87564 33.117602 24.236476 33.117602h451.382455c13.360836 0 24.236475-14.794901 24.236476-33.117602l55.519249-250.597838c0-18.322701-10.87564-33.117602-24.239576-33.117602zM658.431225 573.788827l-45.573039 48.594652c-1.864285 2.048775-3.314628 6.714525-2.899912 9.560176l10.564021 68.851403c0.725559 4.780475-0.517814 8.991201-3.520823 11.267101-1.554217 1.13795-3.314628 1.820875-5.178913 1.820875-1.864285 0-3.728569-0.568975-5.696727-1.706925l-56.137835-32.662577c-2.279001-1.365075-6.836227-1.365075-9.218326 0l-56.34558 32.320727c-3.93554 2.2759-7.871079 2.162725-10.874865-0.11395-3.003785-2.38985-4.247158-6.486625-3.418501-11.380276l10.87564-68.852178c0.414716-2.844875-0.931755-7.624575-2.796815-9.559401l-45.366068-48.821777c-3.210755-3.414625-4.350256-7.62535-3.210755-11.381051 1.1395-3.868875 4.350256-6.372675 8.700511-7.0556l62.87019-9.901251c2.589844-0.455025 6.318413-3.2999 7.457913-5.91765l28.275888-62.592678c1.968157-4.438625 5.07504-6.942425 8.907483-6.942426 3.625472 0 6.836227 2.5038 8.803609 6.942426l27.96582 62.706628c1.1395 2.616975 4.86807 5.576575 7.457138 5.91765l62.87019 10.242326c4.454129 0.682925 7.561011 3.300675 8.700511 7.16955 1.1395 3.9836 0 8.080375-3.210755 11.494226z" fill="#FFFFFF" p-id="1609"></path></svg>