<?xml version="1.0" standalone="no"?><!DOCTYPE svg PUBLIC "-//W3C//DTD SVG 1.1//EN" "http://www.w3.org/Graphics/SVG/1.1/DTD/svg11.dtd"><svg t="1699892897569" class="icon" viewBox="0 0 1102 1024" version="1.1" xmlns="http://www.w3.org/2000/svg" p-id="4826" xmlns:xlink="http://www.w3.org/1999/xlink" width="215.234375" height="200"><path d="M225.437538 971.224615H73.767385a34.461538 34.461538 0 0 1-34.461539-34.461538V117.169231c0-19.062154 15.438769-34.500923 34.461539-34.500923h151.630769c19.022769 0 34.461538 15.438769 34.461538 34.500923v819.633231a34.461538 34.461538 0 0 1-34.422154 34.461538" fill="#1D79DD" p-id="4827"></path><path d="M829.676308 52.854154l237.883077 858.308923a18.313846 18.313846 0 0 1-13.075693 22.724923l-213.070769 55.138462a18.353231 18.353231 0 0 1-22.331077-12.918154L616.841846 246.232615v725.07077c0 10.121846-8.192 18.353231-18.353231 18.35323h-220.553846a18.392615 18.392615 0 0 1-18.392615-18.35323V82.668308c0-10.121846 8.270769-18.353231 18.392615-18.353231h220.553846c10.161231 0 18.392615 8.231385 18.392616 18.353231l-0.039385 6.695384 190.621539-49.388307a18.353231 18.353231 0 0 1 22.252307 12.878769z m-551.384616 11.421538c10.161231 0 18.392615 8.270769 18.392616 18.392616v888.595692c0 10.121846-8.231385 18.353231-18.353231 18.353231h-220.553846A18.392615 18.392615 0 0 1 39.384615 971.264V82.668308c0-10.121846 8.270769-18.353231 18.392616-18.353231h220.553846z m301.764923 36.824616h-183.768615v851.771077h183.768615V101.100308z m-320.118153 0H76.130462v851.771077H259.938462V101.100308z m539.175384-21.031385l-177.427692 46.001231 228.036923 822.862769 177.388308-45.961846-228.036923-822.902154z" fill="#45474D" p-id="4828"></path></svg>