<?xml version="1.0" standalone="no"?><!DOCTYPE svg PUBLIC "-//W3C//DTD SVG 1.1//EN" "http://www.w3.org/Graphics/SVG/1.1/DTD/svg11.dtd"><svg t="1699891992324" class="icon" viewBox="0 0 1024 1024" version="1.1" xmlns="http://www.w3.org/2000/svg" p-id="4237" xmlns:xlink="http://www.w3.org/1999/xlink" width="200" height="200"><path d="M512 0C229.249829 0 0 229.249829 0 512s229.249829 512 512 512c282.784914 0 512-229.249829 512-512S794.784914 0 512 0zM512 73.142857c242.000457 0 438.857143 196.856686 438.857143 438.857143 0 57.929143-11.5712 113.179429-32.036571 163.856457-37.677714-195.964343-168.892343-310.286629-168.892343-310.286629-8.321829 146.428343-34.285714 215.071086-34.285714 215.071086C628.571429 342.857143 477.714286 228.500114 477.714286 228.500114c-26.642286 274.071771-175.107657 434.0352-175.107657 434.0352-25.071543-100.106971-70.392686-167.5008-70.392686-167.5008-7.963429 128.071314-42.821486 214.250057-77.856914 270.392686C103.427657 693.7856 73.142857 606.429257 73.142857 512 73.142857 269.999543 269.999543 73.142857 512 73.142857zM512 950.857143c-122.858057 0-233.929143-50.8928-313.642057-132.500114 43.964343-63.857371 59.178057-117.392457 59.178057-117.392457 17.7152 39.285029 20.357486 113.821257 20.357486 113.821257C479.857371 639.678171 530.322286 502.893714 530.322286 502.893714c117.321143 161.499429 152.963657 329.034971 152.963657 329.034971 97.106286-99.000686 127.572114-232.250514 127.572114-232.250514 31.857371 42.964114 49.3568 105.250743 59.072 165.392457C790.357943 877.2864 659.713829 950.857143 512 950.857143z" fill="#F69661" p-id="4238"></path></svg>