<?xml version="1.0" standalone="no"?><!DOCTYPE svg PUBLIC "-//W3C//DTD SVG 1.1//EN" "http://www.w3.org/Graphics/SVG/1.1/DTD/svg11.dtd"><svg t="1699892274990" class="icon" viewBox="0 0 1024 1024" version="1.1" xmlns="http://www.w3.org/2000/svg" p-id="15169" xmlns:xlink="http://www.w3.org/1999/xlink" width="200" height="200"><path d="M839.4 877.5c0 33.7-28.9 61.1-64.7 61.1h-646c-35.8 0-64.7-27.4-64.7-61.1 0-122.1 124.9-236.3 252.5-281.2-73.7-43.1-123.3-119.6-123.3-207.5v-61.1c0-135 115.8-244.5 258.5-244.5s258.5 109.5 258.5 244.5v61.1c0 87.9-49.6 164.4-123.3 207.5 127.6 45 252.5 159.1 252.5 281.2z" fill="#42C9E8" p-id="15170"></path><path d="M904 700.8h-82.6l8-18.6c16-34.6 15.6-63.7 2.7-85.2-13.8-23-39-26.6-52.4-25.8-5.2 0.3-9.7 3.3-12.4 7.8l-71.4 122h-65.7c-10.4 0-18.8 8.4-18.8 18.8v202.1c0 10.4 8.4 18.8 18.8 18.8h70.5v-0.3c0.3 0 0.5 0.2 0.8 0.2H880c26.6 0 50.6-18.6 53.3-45.3l26.6-141.2c0-29.3-23.9-53.3-55.9-53.3z" fill="#FFB161" p-id="15171"></path><path d="M661.4 908.2c-11.1 0-20.1-9-20.1-20.1V753.7c0-11.1 9-20.1 20.1-20.1 11.1 0 20.1 9 20.1 20.1v134.5c0 11-9 20-20.1 20z" fill="#FDDE80" p-id="15172"></path></svg>