<?xml version="1.0" standalone="no"?><!DOCTYPE svg PUBLIC "-//W3C//DTD SVG 1.1//EN" "http://www.w3.org/Graphics/SVG/1.1/DTD/svg11.dtd"><svg t="1699892458933" class="icon" viewBox="0 0 1024 1024" version="1.1" xmlns="http://www.w3.org/2000/svg" p-id="1440" xmlns:xlink="http://www.w3.org/1999/xlink" width="200" height="200"><path d="M766.0544 927.0272H257.9456a124.0576 124.0576 0 0 1-124.0576-124.0576V221.0304a124.0576 124.0576 0 0 1 124.0576-124.0576h440.32l191.6928 189.44v516.5568a124.0576 124.0576 0 0 1-123.904 124.0576z" fill="#FD9F55" p-id="1441"></path><path d="M698.4192 96.9728V248.32a41.8304 41.8304 0 0 0 41.8304 41.8304h149.8624v-3.7376z" fill="#FECC87" p-id="1442"></path><path d="M498.9952 674.4064a40.96 40.96 0 0 1-40.96-40.96v-33.536a122.5728 122.5728 0 0 1 74.752-113.0496 86.6304 86.6304 0 1 0-92.8768-143.36 85.76 85.76 0 0 0-27.5456 63.5392 40.96 40.96 0 0 1-81.92 0A168.96 168.96 0 0 1 384 283.8016a167.2192 167.2192 0 0 1 126.8736-44.9024 168.6016 168.6016 0 0 1 53.9136 323.3792 40.96 40.96 0 0 0-24.832 37.632v33.536a40.96 40.96 0 0 1-40.96 40.96z" fill="#FFFFFF" p-id="1443"></path><path d="M501.7088 751.9232m-48.64 0a48.64 48.64 0 1 0 97.28 0 48.64 48.64 0 1 0-97.28 0Z" fill="#FFFFFF" p-id="1444"></path></svg>