<?xml version="1.0" standalone="no"?><!DOCTYPE svg PUBLIC "-//W3C//DTD SVG 1.1//EN" "http://www.w3.org/Graphics/SVG/1.1/DTD/svg11.dtd"><svg t="1699892129590" class="icon" viewBox="0 0 1024 1024" version="1.1" xmlns="http://www.w3.org/2000/svg" p-id="2215" xmlns:xlink="http://www.w3.org/1999/xlink" width="200" height="200"><path d="M475.46 783.892h73.992c6.166 0 9.247 3.085 9.247 9.251v27.745c0 6.166-3.081 9.251-9.247 9.251H475.46c-6.166 0-9.251-3.085-9.251-9.251v-27.745c0-6.166 3.085-9.251 9.251-9.251z m0 0" fill="#FFFFFF" p-id="2216"></path><path d="M202.038 251.932c-13.169 0-26.338 13.17-26.338 29.629v592.561c0 16.459 13.169 29.624 29.629 29.624h615.605c16.459 0 29.628-13.165 29.628-29.624V281.561a29.507 29.507 0 0 0-29.628-29.629H620.123c-46.088 0-82.301 39.504-82.301 85.592 0 13.169-13.169 26.338-26.338 26.338-6.58 0-13.165-3.294-19.75-6.585-3.294-6.584-6.584-13.169-6.584-19.753 0-46.088-36.213-85.592-82.301-85.592H202.038z m0 0" fill="#FFCB2F" p-id="2217"></path><path d="M511.483 923.5c-16.459 0-32.919-13.169-32.919-32.919V199.26c0-16.459 13.169-32.919 32.919-32.919 16.463 0 32.923 13.166 32.923 32.919v691.321c0.001 19.75-13.168 32.919-32.923 32.919z m0 0" fill="#333333" p-id="2218"></path><path d="M876.895 923.5h-730.82c-52.672 0-95.47-42.798-95.47-98.76V199.26c0-52.672 42.798-98.76 95.47-98.76h237.023c52.673 0 98.761 26.334 128.385 65.841 29.629-39.507 75.716-65.841 128.389-65.841h237.023c52.673 0 95.47 42.798 95.47 98.76v625.48c0.001 55.962-42.796 98.76-95.47 98.76zM132.907 149.878c-19.754 0-32.923 16.463-32.923 36.213v651.818c0 19.75 16.463 36.213 36.213 36.213H893.36c19.749 0 36.209-16.463 36.209-36.213V186.091c0-19.75-16.46-36.213-36.209-36.213H646.456c-55.962 0-102.05 46.092-102.05 105.345 0 19.753-13.169 32.922-32.923 32.922-9.875 0-16.459-3.294-23.044-9.878-6.58-6.585-9.875-13.165-9.875-23.044 0-55.963-46.087-105.345-102.05-105.345H132.907z m0 0" fill="#333333" p-id="2219"></path></svg>